<?xml version="1.0" encoding="UTF-8" standalone="no"?>
<svg
   version="1.1"
   width="593.01697"
   height="593.01691"
   id="svg10"
   sodipodi:docname="avatar.svg"
   inkscape:version="1.1.2 (b8e25be833, 2022-02-05)"
   viewBox="0 0 593.01695 593.01689"
   inkscape:export-filename="E:\FILES\avatar.png"
   inkscape:export-xdpi="200"
   inkscape:export-ydpi="200"
   xmlns:inkscape="http://www.inkscape.org/namespaces/inkscape"
   xmlns:sodipodi="http://sodipodi.sourceforge.net/DTD/sodipodi-0.dtd"
   xmlns="http://www.w3.org/2000/svg"
   xmlns:svg="http://www.w3.org/2000/svg"
   xmlns:rdf="http://www.w3.org/1999/02/22-rdf-syntax-ns#"
   xmlns:cc="http://creativecommons.org/ns#"
   xmlns:dc="http://purl.org/dc/elements/1.1/">
  <sodipodi:namedview
     id="namedview10"
     pagecolor="#ffffff"
     bordercolor="#666666"
     borderopacity="1.0"
     inkscape:pageshadow="2"
     inkscape:pageopacity="0.0"
     inkscape:pagecheckerboard="0"
     showgrid="false"
     inkscape:zoom="1.0433333"
     inkscape:cx="626.83708"
     inkscape:cy="309.10544"
     inkscape:window-width="1920"
     inkscape:window-height="991"
     inkscape:window-x="-9"
     inkscape:window-y="-9"
     inkscape:window-maximized="1"
     inkscape:current-layer="g1996"
     fit-margin-top="0"
     fit-margin-left="0"
     fit-margin-right="0"
     fit-margin-bottom="0"
     width="124.36102px"
     scale-x="1"
     lock-margins="true"
     inkscape:snap-global="false" />
  <metadata
     id="metadata16">
    <rdf:RDF>
      <cc:Work
         rdf:about="">
        <dc:format>image/svg+xml</dc:format>
        <dc:type
           rdf:resource="http://purl.org/dc/dcmitype/StillImage" />
      </cc:Work>
    </rdf:RDF>
  </metadata>
  <defs
     id="defs14">
    <clipPath
       clipPathUnits="userSpaceOnUse"
       id="clipPath2020">
      <rect
         style="opacity:0.86;fill:#008000;stroke-width:1.03812"
         id="rect2022"
         width="125.70369"
         height="126.03245"
         x="129.3409"
         y="198.70958" />
    </clipPath>
  </defs>
  <g
     style="fill:#ffd700;fill-opacity:1"
     id="g2900"
     transform="matrix(4.7175779,0,0,4.7052719,-89.855643,-681.28615)">
    <g
       id="g1982"
       transform="translate(-110.29391,-53.917491)">
      <g
         id="g968"
         transform="matrix(1.0107965,0,0,1.0134401,-3.871114,-3.8165545)" />
      <g
         id="g1996">
        <g
           id="g2009">
          <g
             id="g2018"
             clip-path="url(#clipPath2020)">
            <path
               fill="#bc0000"
               fill-opacity="1"
               d="M 0,0 H 1200 V 600 H 0 Z"
               id="path2"
               style="fill:#cc0000;fill-opacity:1"
               transform="matrix(1.0107965,0,0,1.0134401,-3.871114,-3.8165545)" />
            <path
               id="rect4165-6"
               d="m 137.43744,171.69421 18.86296,18.9937 17.78834,-17.66589 c 27.05847,29.021 55.43807,56.99501 82.28704,86.12782 4.03444,4.06233 10.59815,4.085 14.66056,0.0506 4.06232,-4.03445 5.0538,-96.31964 1.01941,-100.38205 -28.81871,-27.1901 -58.69426,31.12006 -87.52209,3.83054 l 23.96499,-23.80003 -33.34026,-4.61605 z"
               style="fill:#ffd700;fill-opacity:1;stroke:none;stroke-width:0.489191;stroke-miterlimit:4;stroke-dasharray:none;stroke-dashoffset:0;stroke-opacity:1"
               sodipodi:nodetypes="cccccccccc" />
            <path
               id="path4179-3"
               d="m 198.2887,110.1955 c 15.51743,8.7394 27.29872,21.28122 34.2484,34.3924 7.04394,13.28902 9.65518,3.84982 9.71884,14.94197 0.13054,22.74374 -11.4138,20.78352 -34.15792,20.78352 -12.13597,0 -20.86624,5.43616 -28.40319,-2.91601 -5.50934,-71.6312 -16.8396,-33.15641 -16.03661,0.35344 -9.91373,-40.8261 -64.679018,-74.23468 -42.9145,-39.50953 -25.565436,-28.41175 -4.8624,-5.40101 17.53415,38.62693 -22.59218,-32.15122 -62.864777,17.01551 -37.89182,39.53227 -3.134858,6.28843 -2.789803,8.80903 -9.720354,7.64951 -40.511708,-6.77784 8.357208,11.70618 8.301328,11.73448 -3.07749,1.12758 32.832196,1.95011 30.205596,4.58826 -5.19155,5.23656 -7.72858,11.93658 -6.30024,16.63822 -0.14098,0.40857 -0.21361,0.83759 -0.21498,1.26979 1.5e-4,2.17082 1.75991,3.93058 3.93073,3.93073 0.54341,-0.002 1.08053,-0.11639 1.57745,-0.33632 4.69369,1.05881 11.06885,-1.54582 16.05444,-6.55917 2.82624,-2.85072 4.94356,-6.22349 5.98303,-9.53062 2.31696,-6.62278 7.29699,-12.01856 13.62281,-15.05312 0.15105,-0.0725 0.27303,-0.14714 0.38218,-0.22358 2.12082,-1.01408 3.67251,-2.92895 4.225,-5.2139 9.70222,11.44481 24.25255,18.75299 40.51876,19.13577 29.83352,0.70205 52.13299,-21.25802 53.16414,-52.83642 0.51894,-15.89259 -5.62993,-36.3847 -19.6412,-53.19089 -10.70835,-12.84441 -26.40987,-23.50795 -44.18699,-28.20777 z"
               style="fill:#ffd700;fill-opacity:1;stroke:none;stroke-width:0.500035;stroke-miterlimit:4;stroke-dasharray:none;stroke-dashoffset:0;stroke-opacity:1"
               sodipodi:nodetypes="cssscccccsccccccccsccssscc" />
          </g>
        </g>
      </g>
    </g>
  </g>
</svg>
